<?xml version="1.0" encoding="UTF-8" standalone="no"?>
<svg id="svg4" height="96.464447" viewBox="0 0 399.99999 96.464448" width="400" xmlns="http://www.w3.org/2000/svg">
   <path id="path2" d="m367.22949 6.565852v-5.797408h-22.55749v40.875604h6.16871v-17.537923h13.2868v-5.797408h-13.2868v-11.742865zm-27.7486 14.638044c0-11.709965-9.49393-21.203896-21.2086-21.203896-11.71466 0-21.20624 9.493931-21.20624 21.203896a21.208596 21.208596 0 0 0 42.41484 0m-6.16871 0a15.039891 15.039891 0 1 1-30.07508.0047 15.039891 15.039891 0 0 1  30.07508-.0047m-56.59229 4.852715l14.37955-25.288167h-7.1228l-10.34227 18.261718-10.33758-18.261718h-31.85637v5.797408h10.66657v35.078196h6.16871v-35.078196h10.66187v-.935293l11.61362 20.426052v15.587437h6.1687zm-56.31734 15.587437h6.16871v-40.875604h-6.16871zm-25.04142-30.655528c0-3.546124 2.56384-5.682259 5.84206-5.682259 2.78943 0 4.73757 1.43114 6.35201 4.22292l4.71876-2.993879c-2.26303-4.15242-6.25565-6.535302-10.96502-6.535302-6.7844 0-11.90031 4.652966-11.90031 10.831071 0 12.45726 18.42621 10.560824 18.42621 19.053662 0 3.839872-3.32757 7.167448-7.42359 7.167448-3.68478 0-6.48126-2.958628-7.0476-6.9066l-5.70576 1.466389c1.35829 6.582303 6.22745 10.802872 12.85911 10.802872 7.44239 0 13.2727-5.668159 13.2727-12.948406 0-12.532459-18.42857-11.467917-18.42857-18.477916m-8.71843 30.655528l-13.21631-17.345225c5.50131-1.35829 9.47043-5.019563 9.47043-11.392717 0-8.607987-6.47655-12.137662-15.00464-12.137662h-8.43174v40.875604h6.16871v-16.731879h.99169l12.24341 16.731879zm-19.45316-22.526937h-1.56039v-12.551259h1.56039c4.02082 0 9.54093.481747 9.54093 6.276805 0 5.792708-5.52011 6.274454-9.54093 6.274454m-36.52814 22.526937h22.55514v-5.797408h-16.38643v-11.740515h13.2868v-5.797408h-13.2868v-11.742865h16.38643v-5.797408h-22.55514zm-21.56109.770794l18.29697-41.646398h-6.68336l-12.02251 27.226903-11.693513-27.226903h-6.685702l17.796425 41.646398zm-29.341888-.770794h6.168705v-40.875604h-6.168705zm-9.320033.770794h.989343v-41.646398h-6.168705v27.055354l-26.293959-27.823798h-.989343v41.644048h6.168705v-27.175203zm-39.150716-15.993984v-25.652414h-6.168705v25.652414c0 5.642309-3.574324 10.194226-9.475131 10.194226-5.903157 0-9.475127-4.551917-9.475127-10.194226v-25.652414h-6.16871v25.652414c0 9.094434 6.73035 15.965784 15.643837 15.965784 8.911135 0 15.643836-6.87135 15.643836-15.965784m61.311056 38.053274c0-3.118427 2.349983-4.967864 5.696358-4.967864 2.789433 0 4.735213 1.283091 6.354353 4.072521l4.71407-2.991529c-2.25834-4.154769-6.25566-6.537652-10.962673-6.537652-6.784401 0-11.900314 4.660016-11.900314 10.835771 0 12.600609 18.282867 10.934471 18.282867 19.636458 0 3.837522-3.18658 6.582302-7.280247 6.582302-3.687123 0-6.481253-2.960978-7.047599-6.9066l-5.705758 1.46404c1.35829 6.584652 6.227454 10.802871 12.859106 10.802871 7.442398 0 13.272708-5.668159 13.272708-12.948406 0-12.255161-18.282871-11.644165-18.282871-19.041912m166.982741 0c0-3.118427 2.34998-4.967864 5.69401-4.967864 2.79178 0 4.73286 1.283091 6.3567 4.072521l4.71407-2.991529c-2.25834-4.154769-6.25566-6.537652-10.96502-6.537652-6.7844 0-11.90032 4.660016-11.90032 10.835771 0 12.600609 18.28287 10.934471 18.28287 19.636458 0 3.837522-3.18658 6.582302-7.28025 6.582302-3.68477 0-6.48125-2.960978-7.04525-6.9066l-5.71046 1.46404c1.363 6.584652 6.22981 10.802871 12.86146 10.802871 7.4424 0 13.27271-5.668159 13.27271-12.948406 0-12.255161-18.28052-11.644165-18.28052-19.041912m106.61168 2.483932c0-8.607987-6.62461-12.137662-15.1527-12.137662h-8.43173v40.873254h6.1687v-16.729529h.98934l12.24342 16.729529h7.77609l-13.21396-17.345224c5.50366-1.353591 9.62084-5.017214 9.62084-11.390368m-17.41573 6.208655v-12.548909h1.55804c4.02317 0 9.54093.481747 9.54093 6.274455 0 5.792708-5.51776 6.274454-9.54093 6.274454zm-35.74794 22.526937h22.55749v-5.797408h-16.38878v-11.740515h13.2868v-5.797408h-13.2868v-11.740515h16.38878v-5.797408h-22.55749zm-255.003701 0h22.555137v-5.797408h-16.386431v-11.740515h13.286803v-5.797408h-13.286803v-11.740515h16.386431v-5.797408h-22.555137zm138.402251 0h6.1687v-40.873254h-6.1687zm83.82624-35.075846h10.66422v35.075846h6.16871v-35.075846h10.65952v-5.797408h-27.49245zm-166.05685 0h10.66422v35.075846h6.16871v-35.075846h10.66187v-5.797408h-27.4948zm65.19088-6.565852l-13.7662 30.30538-13.7662-30.30538h-.99169l-8.68084 41.641698h6.25565l4.92557-23.40348 11.76166 24.174274h.98935l11.76401-24.174274 4.92322 23.40348h6.25565l-8.68084-41.641698zm-141.565324 26.404408l-10.974421-26.404408h-.991692l-10.974423 26.404408-8.36359-25.635964h-6.51885l13.62755 41.644048h.98934l11.735819-27.5277 11.735815 27.5277h.989343l13.629901-41.644048h-6.518853zm201.847084 1.41704l-26.29396-27.821448h-.98934v41.641698h6.16871v-27.172853l26.2916 27.943647h.9917v-41.644048h-6.16871zm135.36137-27.053004v29.02699l2.77768-2.77768v-5.994807h4.61772v4.577767l1.39119 1.39119 1.38884-1.39119v-4.577767h4.61771v4.577767l1.38884 1.39119 1.38884-1.39119v-4.577767h4.62007v5.994807l2.77768 2.77768v-29.02699zm7.3954 17.469774h-4.61772v-5.957207h4.61772zm0-8.737237h-4.61772v-5.959557h4.61772zm7.39774 8.737237h-4.61771v-5.957207h4.61771zm0-8.737237h-4.61771v-5.959557h4.61771zm7.39775 8.737237h-4.62007v-5.957207h4.62007zm0-8.737237h-4.62007v-5.959557h4.62007z" fill="#490248" stroke-width="2.34998298"/>
</svg>
